<svg xmlns="http://www.w3.org/2000/svg" version="1.1" xml:space="preserve"
     style="fill-rule:evenodd;clip-rule:evenodd;stroke-linecap:round;stroke-linejoin:round;stroke-miterlimit:1.5;"
     viewBox="1390.45 550.51 895.74 895.74">
    <g transform="matrix(-1.65372,-2.02522e-16,1.57556e-16,-1.28654,6360.08,2248.9)">
        <path d="M2733.11,701.342C2733.11,701.342 2608.02,939.047 2608.02,1040.92C2608.02,1129.67 2664.07,1201.72 2733.11,1201.72C2802.15,1201.72 2858.21,1129.67 2858.21,1040.92C2858.21,939.047 2733.11,701.342 2733.11,701.342Z"
              style="fill:white;"/>
    </g>
    <g transform="matrix(0.863995,0,0,0.863995,128.364,-30.6854)">
        <circle cx="1979.12" cy="1191.05" r="506.425" style="fill:none;stroke:white;stroke-width:20.64px;"/>
    </g>
    <g transform="matrix(1,0,0,1,0.398033,-198.079)">
        <g transform="matrix(0.310612,0,0,0.312783,1000.65,802.457)">
            <circle cx="2855.42" cy="611.773" r="86.021" style="fill:rgb(95,185,104);"/>
        </g>
        <g transform="matrix(0.370691,0,0,0.381643,839.127,769.834)">
            <circle cx="2853.35" cy="1367.96" r="47.302" style="fill:rgb(95,185,104);"/>
        </g>
        <g transform="matrix(1.00916,0,0,0.368685,-935.772,788.572)">
            <rect x="2771.29" y="556.336" width="32.375" height="487.309" style="fill:rgb(95,185,104);"/>
        </g>
        <g transform="matrix(0.389093,0,0,0.372673,787.883,777.098)">
            <rect x="2804.99" y="581.75" width="90.166" height="799.371" style="fill:rgb(95,185,104);"/>
        </g>
    </g>
    <g transform="matrix(1,0,0,1,-15.1066,-180.942)">
        <g transform="matrix(0.352778,0,0,0.351471,917.111,803.583)">
            <rect x="2514.61" y="679.601" width="90.264" height="659.631" style="fill:rgb(95,185,104);"/>
        </g>
        <g>
            <g transform="matrix(0.352778,0,0,0.352778,916.8,802.378)">
                <rect x="2634.14" y="466.527" width="32.618" height="214.9" style="fill:rgb(95,185,104);"/>
            </g>
            <g transform="matrix(0.394382,0,0,0.394382,830.262,786.796)">
                <circle cx="2590.27" cy="456.817" r="14.576" style="fill:rgb(95,185,104);"/>
            </g>
        </g>
        <g>
            <g transform="matrix(0.352778,0,0,0.352778,916.8,802.378)">
                <rect x="2634.14" y="466.527" width="32.618" height="214.9" style="fill:rgb(95,185,104);"/>
            </g>
            <g transform="matrix(0.394382,0,0,0.394382,830.262,786.796)">
                <circle cx="2590.27" cy="456.817" r="14.576" style="fill:rgb(95,185,104);"/>
            </g>
        </g>
        <g transform="matrix(1,0,0,1,-42.7136,-0.304853)">
            <g transform="matrix(0.352778,0,0,0.352778,916.8,802.378)">
                <rect x="2634.14" y="466.527" width="32.618" height="214.9" style="fill:rgb(95,185,104);"/>
            </g>
            <g transform="matrix(0.394382,0,0,0.394382,830.262,786.796)">
                <circle cx="2590.27" cy="456.817" r="14.576" style="fill:rgb(95,185,104);"/>
            </g>
        </g>
        <g transform="matrix(0.352778,0,0,0.352778,917.111,801.833)">
            <rect x="2452.6" y="681.892" width="213.326" height="87.355" style="fill:rgb(95,185,104);"/>
        </g>
        <g transform="matrix(0.546767,0,0,0.516182,368.639,656.509)">
            <circle cx="2625.56" cy="809.597" r="40.048" style="fill:rgb(95,185,104);"/>
        </g>
        <g transform="matrix(0.336086,0,0,0.335617,960.288,808.522)">
            <circle cx="2558.4" cy="1388.08" r="47.392" style="fill:rgb(95,185,104);"/>
        </g>
        <g transform="matrix(0.546767,0,0,0.516182,400.179,655.309)">
            <circle cx="2625.56" cy="809.597" r="40.048" style="fill:rgb(95,185,104);"/>
        </g>
        <g transform="matrix(1,0,0,1,-63.7423,0.0398787)">
            <g transform="matrix(0.352778,0,0,0.352778,916.8,802.378)">
                <rect x="2634.14" y="466.527" width="32.618" height="214.9" style="fill:rgb(95,185,104);"/>
            </g>
            <g transform="matrix(0.394382,0,0,0.394382,830.262,786.796)">
                <circle cx="2590.27" cy="456.817" r="14.576" style="fill:rgb(95,185,104);"/>
            </g>
        </g>
        <g transform="matrix(1,0,0,1,-20.8424,-0.301864)">
            <g transform="matrix(0.352778,0,0,0.352778,916.8,802.378)">
                <rect x="2634.14" y="466.527" width="32.618" height="214.9" style="fill:rgb(95,185,104);"/>
            </g>
            <g transform="matrix(0.394382,0,0,0.394382,830.262,786.796)">
                <circle cx="2590.27" cy="456.817" r="14.576" style="fill:rgb(95,185,104);"/>
            </g>
        </g>
    </g>
</svg>